<svg width="2898" height="1593" xmlns="http://www.w3.org/2000/svg" xmlns:xlink="http://www.w3.org/1999/xlink" xml:space="preserve" overflow="hidden"><defs><clipPath id="clip0"><rect x="695" y="367" width="2898" height="1593"/></clipPath></defs><g clip-path="url(#clip0)" transform="translate(-695 -367)"><path d="M1311 609.857C1311 575.142 1339.14 547 1373.86 547L3385.14 547C3419.86 547 3448 575.142 3448 609.857L3448 1322.14C3448 1356.86 3419.86 1385 3385.14 1385L1373.86 1385C1339.14 1385 1311 1356.86 1311 1322.14Z" fill="#B4C7E7" fill-rule="evenodd" fill-opacity="0.321569"/><path d="M2396 735 2396 1032" stroke="#7F7F7F" stroke-width="13.75" stroke-miterlimit="8" fill="none" fill-rule="evenodd"/><path d="M1588 1031C1588 845.985 1588 696 1588 696L3172 696C3172 696 3172 845.985 3172 1031" stroke="#7F7F7F" stroke-width="13.75" stroke-miterlimit="8" fill="none" fill-rule="evenodd"/><path d="M1337.5 1080.33C1337.5 1052.26 1360.26 1029.5 1388.33 1029.5L1787.67 1029.5C1815.74 1029.5 1838.5 1052.26 1838.5 1080.33L1838.5 1283.67C1838.5 1311.74 1815.74 1334.5 1787.67 1334.5L1388.33 1334.5C1360.26 1334.5 1337.5 1311.74 1337.5 1283.67Z" stroke="#D9D9D9" stroke-width="4.58333" stroke-miterlimit="8" fill="#D9D9D9" fill-rule="evenodd"/><text font-family="Calibri,Calibri_MSFontService,sans-serif" font-weight="400" font-size="92" transform="matrix(1 0 0 1 1390.67 1212)">Ion Source</text><path d="M2058.5 1080.33C2058.5 1052.26 2081.26 1029.5 2109.33 1029.5L2671.67 1029.5C2699.74 1029.5 2722.5 1052.26 2722.5 1080.33L2722.5 1283.67C2722.5 1311.74 2699.74 1334.5 2671.67 1334.5L2109.33 1334.5C2081.26 1334.5 2058.5 1311.74 2058.5 1283.67Z" stroke="#D9D9D9" stroke-width="4.58333" stroke-miterlimit="8" fill="#D9D9D9" fill-rule="evenodd"/><text font-family="Calibri,Calibri_MSFontService,sans-serif" font-weight="400" font-size="92" transform="matrix(1 0 0 1 2122.71 1212)">M</text><text font-family="Calibri,Calibri_MSFontService,sans-serif" font-weight="400" font-size="92" transform="matrix(1 0 0 1 2201.2 1212)">ass Analyzer</text><path d="M2942.5 1080.33C2942.5 1052.26 2965.26 1029.5 2993.33 1029.5L3366.67 1029.5C3394.74 1029.5 3417.5 1052.26 3417.5 1080.33L3417.5 1283.67C3417.5 1311.74 3394.74 1334.5 3366.67 1334.5L2993.33 1334.5C2965.26 1334.5 2942.5 1311.74 2942.5 1283.67Z" stroke="#D9D9D9" stroke-width="4.58333" stroke-miterlimit="8" fill="#D9D9D9" fill-rule="evenodd"/><text font-family="Calibri,Calibri_MSFontService,sans-serif" font-weight="400" font-size="92" transform="matrix(1 0 0 1 3016.16 1212)">Detector</text><path d="M2038.5 619.5C2038.5 601.275 2053.27 586.5 2071.5 586.5L2709.5 586.5C2727.73 586.5 2742.5 601.275 2742.5 619.5L2742.5 751.5C2742.5 769.725 2727.73 784.5 2709.5 784.5L2071.5 784.5C2053.27 784.5 2038.5 769.725 2038.5 751.5Z" stroke="#D9D9D9" stroke-width="4.58333" stroke-miterlimit="8" fill="#D9D9D9" fill-rule="evenodd"/><text font-family="Calibri,Calibri_MSFontService,sans-serif" font-weight="400" font-size="92" transform="matrix(1 0 0 1 2096.92 716)">Vacuum System</text><path d="M719.5 1136.25 1186 1136.25 1186 1092.5 1273.5 1180 1186 1267.5 1186 1223.75 719.5 1223.75Z" stroke="#D9D9D9" stroke-width="4.58333" stroke-miterlimit="8" fill="#D9D9D9" fill-rule="evenodd"/><text font-family="Calibri,Calibri_MSFontService,sans-serif" font-weight="400" font-size="64" transform="matrix(1 0 0 1 757.103 1201)">Sample injection</text><text fill="#0070C0" font-family="Calibri,Calibri_MSFontService,sans-serif" font-weight="400" font-size="83" transform="matrix(1 0 0 1 1477.17 1492)">ESI</text><text fill="#0070C0" font-family="Calibri,Calibri_MSFontService,sans-serif" font-weight="400" font-size="83" transform="matrix(1 0 0 1 1477.17 1591)">MALDI</text><text fill="#0070C0" font-family="Calibri,Calibri_MSFontService,sans-serif" font-weight="400" font-size="83" transform="matrix(1 0 0 1 1477.17 1690)">APCI</text><text fill="#0070C0" font-family="Calibri,Calibri_MSFontService,sans-serif" font-weight="400" font-size="83" transform="matrix(1 0 0 1 1477.17 1789)">EI</text><text fill="#0070C0" font-family="Calibri,Calibri_MSFontService,sans-serif" font-weight="400" font-size="83" transform="matrix(1 0 0 1 1477.17 1888)">CI</text><text fill="#0070C0" font-family="Calibri,Calibri_MSFontService,sans-serif" font-weight="400" font-size="83" transform="matrix(1 0 0 1 2205.11 1492)">Quadrupole</text><text fill="#0070C0" font-family="Calibri,Calibri_MSFontService,sans-serif" font-weight="400" font-size="83" transform="matrix(1 0 0 1 2205.11 1591)">TOF</text><text fill="#0070C0" font-family="Calibri,Calibri_MSFontService,sans-serif" font-weight="400" font-size="83" transform="matrix(1 0 0 1 2205.11 1690)">Ion Trap</text><text fill="#0070C0" font-family="Calibri,Calibri_MSFontService,sans-serif" font-weight="400" font-size="83" transform="matrix(1 0 0 1 2205.11 1789)">Orbitrap</text><text fill="#0070C0" font-family="Calibri,Calibri_MSFontService,sans-serif" font-weight="400" font-size="83" transform="matrix(1 0 0 1 2205.11 1888)">FT</text><text fill="#0070C0" font-family="Calibri,Calibri_MSFontService,sans-serif" font-weight="400" font-size="83" transform="matrix(1 0 0 1 2283.03 1888)">-</text><text fill="#0070C0" font-family="Calibri,Calibri_MSFontService,sans-serif" font-weight="400" font-size="83" transform="matrix(1 0 0 1 2308.24 1888)">ICR</text><text fill="#0070C0" font-family="Calibri,Calibri_MSFontService,sans-serif" font-weight="400" font-size="83" transform="matrix(1 0 0 1 2896.12 1492)">Electron Multiplier</text><text fill="#0070C0" font-family="Calibri,Calibri_MSFontService,sans-serif" font-weight="400" font-size="83" transform="matrix(1 0 0 1 2896.12 1591)">Faraday Cup</text><text fill="#0070C0" font-family="Calibri,Calibri_MSFontService,sans-serif" font-weight="400" font-size="83" transform="matrix(1 0 0 1 2896.12 1690)">Microchannel Plate</text><text fill="#0070C0" font-family="Calibri,Calibri_MSFontService,sans-serif" font-weight="400" font-size="83" transform="matrix(1 0 0 1 2896.12 1789)">Daly Detector</text><text fill="#0070C0" font-family="Calibri,Calibri_MSFontService,sans-serif" font-weight="400" font-size="83" transform="matrix(1 0 0 1 745.382 1492)">LC</text><text fill="#0070C0" font-family="Calibri,Calibri_MSFontService,sans-serif" font-weight="400" font-size="83" transform="matrix(1 0 0 1 745.382 1591)">GC</text><text fill="#0070C0" font-family="Calibri,Calibri_MSFontService,sans-serif" font-weight="400" font-size="83" transform="matrix(1 0 0 1 745.382 1690)">Direct infusion</text><rect x="2722.5" y="1149.5" width="226" height="71.0001" stroke="#D9D9D9" stroke-width="4.58333" stroke-miterlimit="8" fill="#D9D9D9"/><rect x="1835.5" y="1146.5" width="227" height="71.0001" stroke="#D9D9D9" stroke-width="4.58333" stroke-miterlimit="8" fill="#D9D9D9"/><text fill="#0070C0" font-family="Calibri,Calibri_MSFontService,sans-serif" font-weight="400" font-size="92" transform="matrix(1 0 0 1 2062.7 481)">Control system</text></g></svg>