<svg width="581" height="459" xmlns="http://www.w3.org/2000/svg" xmlns:xlink="http://www.w3.org/1999/xlink" overflow="hidden"><defs><clipPath id="clip0"><rect x="15" y="125" width="581" height="459"/></clipPath><linearGradient x1="504" y1="364" x2="504" y2="410.556" gradientUnits="userSpaceOnUse" spreadMethod="reflect" id="fill1"><stop offset="0" stop-color="#F6F8FC"/><stop offset="0.33" stop-color="#48484A"/><stop offset="1"/></linearGradient><linearGradient x1="504" y1="245" x2="504" y2="291.556" gradientUnits="userSpaceOnUse" spreadMethod="reflect" id="fill2"><stop offset="0" stop-color="#F6F8FC"/><stop offset="0.33" stop-color="#48484A"/><stop offset="1"/></linearGradient><linearGradient x1="504" y1="439" x2="504" y2="485.556" gradientUnits="userSpaceOnUse" spreadMethod="reflect" id="fill3"><stop offset="0" stop-color="#F6F8FC"/><stop offset="0.33" stop-color="#48484A"/><stop offset="1"/></linearGradient><linearGradient x1="309" y1="364" x2="309" y2="410.556" gradientUnits="userSpaceOnUse" spreadMethod="reflect" id="fill4"><stop offset="0" stop-color="#F6F8FC"/><stop offset="0.33" stop-color="#48484A"/><stop offset="1"/></linearGradient><linearGradient x1="309" y1="245" x2="309" y2="291.556" gradientUnits="userSpaceOnUse" spreadMethod="reflect" id="fill5"><stop offset="0" stop-color="#F6F8FC"/><stop offset="0.33" stop-color="#48484A"/><stop offset="1"/></linearGradient><linearGradient x1="309" y1="439" x2="309" y2="485.556" gradientUnits="userSpaceOnUse" spreadMethod="reflect" id="fill6"><stop offset="0" stop-color="#F6F8FC"/><stop offset="0.33" stop-color="#48484A"/><stop offset="1"/></linearGradient><linearGradient x1="113" y1="363" x2="113" y2="409.556" gradientUnits="userSpaceOnUse" spreadMethod="reflect" id="fill7"><stop offset="0" stop-color="#F6F8FC"/><stop offset="0.33" stop-color="#48484A"/><stop offset="1"/></linearGradient><linearGradient x1="113" y1="244" x2="113" y2="290.556" gradientUnits="userSpaceOnUse" spreadMethod="reflect" id="fill8"><stop offset="0" stop-color="#F6F8FC"/><stop offset="0.33" stop-color="#48484A"/><stop offset="1"/></linearGradient><linearGradient x1="113" y1="439" x2="113" y2="485.556" gradientUnits="userSpaceOnUse" spreadMethod="reflect" id="fill9"><stop offset="0" stop-color="#F6F8FC"/><stop offset="0.33" stop-color="#48484A"/><stop offset="1"/></linearGradient></defs><g clip-path="url(#clip0)" transform="translate(-15 -125)"><path d="M0 0 0.000104987 54.2705" stroke="#4472C4" stroke-width="4" stroke-miterlimit="8" fill="none" fill-rule="evenodd" transform="matrix(1 0 0 -1 459 557.271)"/><path d="M0 0 0.000104987 28.0461" stroke="#4472C4" stroke-width="4" stroke-miterlimit="8" fill="none" fill-rule="evenodd" transform="matrix(1 0 0 -1 504 556.046)"/><path d="M0 0 0.000104987 6.90278" stroke="#4472C4" stroke-width="4" stroke-miterlimit="8" fill="none" fill-rule="evenodd" transform="matrix(1 0 0 -1 540 556.903)"/><path d="M0 0 0.000104987 28.2909" stroke="#7030A0" stroke-width="4" stroke-miterlimit="8" fill="none" fill-rule="evenodd" transform="matrix(1 0 0 -1 479 557.291)"/><path d="M0 0 0.000104987 28.2909" stroke="#7030A0" stroke-width="4" stroke-miterlimit="8" fill="none" fill-rule="evenodd" transform="matrix(1 0 0 -1 555 556.291)"/><path d="M0 0 0.000104987 34.4149" stroke="#7030A0" stroke-width="4" stroke-miterlimit="8" fill="none" fill-rule="evenodd" transform="matrix(1 0 0 -1 525 555.415)"/><path d="M0 0 0.000104987 51.1002" stroke="#7030A0" stroke-width="4" stroke-miterlimit="8" fill="none" fill-rule="evenodd" transform="matrix(1 0 0 -1 444 557.1)"/><rect x="480" y="291" width="48" height="59" fill="#D9D9D9"/><path d="M0 0 0.000104987 18.674" stroke="#4472C4" stroke-width="4" stroke-miterlimit="8" fill="none" fill-rule="evenodd" transform="matrix(1 0 0 -1 485 348.674)"/><path d="M0 0 0.000104987 53.8535" stroke="#7030A0" stroke-width="4" stroke-miterlimit="8" fill="none" fill-rule="evenodd" transform="matrix(1 0 0 -1 520 349.854)"/><path d="M0 0 0.000104987 46.7909" stroke="#FF0000" stroke-width="4" stroke-miterlimit="8" fill="none" fill-rule="evenodd" transform="matrix(1 0 0 -1 488 557.791)"/><path d="M0 0 0.000104987 11.1275" stroke="#FF0000" stroke-width="4" stroke-miterlimit="8" fill="none" fill-rule="evenodd" transform="matrix(1 0 0 -1 468 556.127)"/><path d="M0 0 0.000104987 11.1275" stroke="#FF0000" stroke-width="4" stroke-miterlimit="8" fill="none" fill-rule="evenodd" transform="matrix(1 0 0 -1 513 557.127)"/><path d="M0 0 0.000104987 43.2425" stroke="#FF0000" stroke-width="4" stroke-miterlimit="8" fill="none" fill-rule="evenodd" transform="matrix(1 0 0 -1 452 558.242)"/><text font-family="Arial,Arial_MSFontService,sans-serif" font-weight="400" font-size="16" transform="matrix(-1.83697e-16 -1 1 -1.83697e-16 428.627 333)">Q1<tspan font-size="16" x="-222" y="-19.9832">TOF/</tspan><tspan font-size="16" x="-222" y="-0.983246">Orbitrap</tspan></text><text font-family="Arial,Arial_MSFontService,sans-serif" font-weight="400" font-size="24" transform="translate(429.365 156)">uDIA/SWATH<tspan font-style="italic" font-size="12" x="120.39" y="210">m/z</tspan></text><path d="M0 0 0.000104987 33.3535" stroke="#FF0000" stroke-width="4" stroke-miterlimit="8" fill="none" fill-rule="evenodd" transform="matrix(1 0 0 -1 508 349.353)"/><path d="M479 287 479 349.291" stroke="#BFBFBF" stroke-width="2" stroke-miterlimit="8" stroke-dasharray="8 6" fill="none" fill-rule="evenodd"/><path d="M529 288 529 350.291" stroke="#BFBFBF" stroke-width="2" stroke-miterlimit="8" stroke-dasharray="8 6" fill="none" fill-rule="evenodd"/><rect x="434" y="289" width="140" height="61" stroke="#000000" stroke-width="4" stroke-miterlimit="8" fill="none"/><text font-family="Arial,Arial_MSFontService,sans-serif" font-style="italic" font-weight="400" font-size="12" transform="translate(549.755 573)">m/z</text><path d="M0 0 0.000104987 33.3535" stroke="#FF0000" stroke-width="4" stroke-miterlimit="8" fill="none" fill-rule="evenodd" transform="matrix(1 0 0 -1 565 558.354)"/><path d="M0 0 0.000104987 53.8535" stroke="#FF0000" stroke-width="4" stroke-miterlimit="8" fill="none" fill-rule="evenodd" transform="matrix(1 0 0 -1 548 556.854)"/><path d="M0 0 0.000104987 23.7657" stroke="#FF0000" stroke-width="4" stroke-miterlimit="8" fill="none" fill-rule="evenodd" transform="matrix(1 0 0 -1 531 558.766)"/><rect x="434" y="496" width="140" height="61" stroke="#000000" stroke-width="4" stroke-miterlimit="8" fill="none"/><path d="M504 408.046 517.613 396.5 516.271 407.101 531.723 405.373 525.586 411.062 541.66 412.699 528.896 417.353 543.5 422.957 526.08 422.264 530.864 432.523 515.777 425.28 512.95 435.791 503.02 426.232 495.533 439.5 492.717 427.609 481.917 431.571 485.227 424.245 464.994 425.539 478.113 419.941 464.5 413.65 481.423 411.664 465.853 401.069 491.243 409.082 495.047 401.069Z" stroke="#FF0000" stroke-width="1.33333" stroke-miterlimit="8" fill="#FFC000" fill-rule="evenodd"/><text font-family="Arial,Arial_MSFontService,sans-serif" font-weight="400" font-size="16" transform="translate(485.787 423)">HCD<tspan font-size="15" x="-56.0765" y="64">All fragments </tspan><tspan font-size="15" x="33.4235" y="64">–</tspan><tspan font-size="15" x="45.5902" y="64">high res</tspan></text><path d="M507 364 507 377.443 501 377.443 501 364ZM513 374.443 504 392.443 495 374.443Z" fill="url(#fill1)"/><text font-family="Arial,Arial_MSFontService,sans-serif" font-weight="400" font-size="16" transform="matrix(-1.83697e-16 -1 1 -1.83697e-16 427.153 229)">peptides</text><path d="M0 0 0.000104987 45.0972" stroke="#FFC000" stroke-width="4" stroke-miterlimit="8" fill="none" fill-rule="evenodd" transform="matrix(1 0 0 -1 456 229.097)"/><path d="M0 0 0.000104987 33.3535" stroke="#FF0000" stroke-width="4" stroke-miterlimit="8" fill="none" fill-rule="evenodd" transform="matrix(1 0 0 -1 508 229.353)"/><path d="M0 0 0.000104987 23.7657" stroke="#00B050" stroke-width="4" stroke-miterlimit="8" fill="none" fill-rule="evenodd" transform="matrix(1 0 0 -1 555 230.766)"/><rect x="434" y="169" width="140" height="61" stroke="#000000" stroke-width="4" stroke-miterlimit="8" fill="none"/><path d="M507 245 507 258.443 501 258.443 501 245ZM513 255.443 504 273.443 495 255.443Z" fill="url(#fill2)"/><text font-family="Arial,Arial_MSFontService,sans-serif" font-weight="400" font-size="16" transform="translate(458.799 262)">Q1<tspan font-size="16" x="-19.6028" y="14">isolation</tspan></text><path d="M507 439 507 452.443 501 452.443 501 439ZM513 449.443 504 467.443 495 449.443Z" fill="url(#fill3)"/><path d="M0 0 0.000104987 53.8535" stroke="#7030A0" stroke-width="4" stroke-miterlimit="8" fill="none" fill-rule="evenodd" transform="matrix(1 0 0 -1 520 229.854)"/><path d="M0 0 0.000104987 18.674" stroke="#4472C4" stroke-width="4" stroke-miterlimit="8" fill="none" fill-rule="evenodd" transform="matrix(1 0 0 -1 485 229.674)"/><path d="M0 0 0.000104987 14.4594" stroke="#4472C4" stroke-width="4" stroke-miterlimit="8" fill="none" fill-rule="evenodd" transform="matrix(1 0 0 -1 495 555.459)"/><text font-family="Arial,Arial_MSFontService,sans-serif" font-style="italic" font-weight="400" font-size="12" transform="translate(549.755 244)">m/z</text><path d="M0 0 0.000104987 46.7909" stroke="#FF0000" stroke-width="4" stroke-miterlimit="8" fill="none" fill-rule="evenodd" transform="matrix(1 0 0 -1 293 557.791)"/><path d="M0 0 0.000104987 11.1275" stroke="#FF0000" stroke-width="4" stroke-miterlimit="8" fill="none" fill-rule="evenodd" transform="matrix(1 0 0 -1 272 556.127)"/><path d="M0 0 0.000104987 11.1275" stroke="#FF0000" stroke-width="4" stroke-miterlimit="8" fill="none" fill-rule="evenodd" transform="matrix(1 0 0 -1 317 557.127)"/><path d="M0 0 0.000104987 43.2425" stroke="#FF0000" stroke-width="4" stroke-miterlimit="8" fill="none" fill-rule="evenodd" transform="matrix(1 0 0 -1 257 558.242)"/><text font-family="Arial,Arial_MSFontService,sans-serif" font-weight="400" font-size="16" transform="matrix(-1.83697e-16 -1 1 -1.83697e-16 233.31 333)">Q1<tspan font-size="16" x="-222" y="-19.9833">TOF/</tspan><tspan font-size="16" x="-222" y="-0.983261">Orbitrap</tspan></text><rect x="308" y="291" width="8" height="59" fill="#D9D9D9"/><text font-family="Arial,Arial_MSFontService,sans-serif" font-weight="400" font-size="24" transform="translate(282.1 156)">PRM<tspan font-style="italic" font-size="12" x="72.3383" y="210">m/z</tspan></text><path d="M0 0 0.000104987 33.3535" stroke="#FF0000" stroke-width="4" stroke-miterlimit="8" fill="none" fill-rule="evenodd" transform="matrix(1 0 0 -1 313 349.353)"/><path d="M307 287 307 349.291" stroke="#BFBFBF" stroke-width="2" stroke-miterlimit="8" stroke-dasharray="8 6" fill="none" fill-rule="evenodd"/><path d="M317 287 317 349.291" stroke="#BFBFBF" stroke-width="2" stroke-miterlimit="8" stroke-dasharray="8 6" fill="none" fill-rule="evenodd"/><rect x="239" y="289" width="140" height="61" stroke="#000000" stroke-width="4" stroke-miterlimit="8" fill="none"/><text font-family="Arial,Arial_MSFontService,sans-serif" font-style="italic" font-weight="400" font-size="12" transform="translate(354.438 573)">m/z</text><path d="M0 0 0.000104987 33.3535" stroke="#FF0000" stroke-width="4" stroke-miterlimit="8" fill="none" fill-rule="evenodd" transform="matrix(1 0 0 -1 369 558.354)"/><path d="M0 0 0.000104987 53.8535" stroke="#FF0000" stroke-width="4" stroke-miterlimit="8" fill="none" fill-rule="evenodd" transform="matrix(1 0 0 -1 352 556.854)"/><path d="M0 0 0.000104987 23.7657" stroke="#FF0000" stroke-width="4" stroke-miterlimit="8" fill="none" fill-rule="evenodd" transform="matrix(1 0 0 -1 336 558.766)"/><rect x="239" y="496" width="140" height="61" stroke="#000000" stroke-width="4" stroke-miterlimit="8" fill="none"/><path d="M308.5 408.046 322.285 396.5 320.926 407.101 336.574 405.373 330.359 411.062 346.637 412.699 333.711 417.353 348.5 422.957 330.859 422.264 335.704 432.523 320.426 425.28 317.563 435.791 307.507 426.232 299.926 439.5 297.074 427.609 286.137 431.571 289.489 424.245 269 425.539 282.285 419.941 268.5 413.65 285.637 411.664 269.87 401.069 295.582 409.082 299.433 401.069Z" stroke="#FF0000" stroke-width="1.33333" stroke-miterlimit="8" fill="#FFC000" fill-rule="evenodd"/><text font-family="Arial,Arial_MSFontService,sans-serif" font-weight="400" font-size="16" transform="translate(290.47 423)">HCD<tspan font-size="15" x="-56.0765" y="64">All fragments </tspan><tspan font-size="15" x="33.4235" y="64">–</tspan><tspan font-size="15" x="45.5902" y="64">high res</tspan></text><path d="M312 364 312 377.443 306 377.443 306 364ZM318 374.443 309 392.443 300 374.443Z" fill="url(#fill4)"/><text font-family="Arial,Arial_MSFontService,sans-serif" font-weight="400" font-size="16" transform="matrix(-1.83697e-16 -1 1 -1.83697e-16 231.836 229)">peptides</text><path d="M0 0 0.000104987 45.0972" stroke="#FFC000" stroke-width="4" stroke-miterlimit="8" fill="none" fill-rule="evenodd" transform="matrix(1 0 0 -1 261 229.097)"/><path d="M0 0 0.000104987 18.674" stroke="#4472C4" stroke-width="4" stroke-miterlimit="8" fill="none" fill-rule="evenodd" transform="matrix(1 0 0 -1 290 229.674)"/><path d="M0 0 0.000104987 33.3535" stroke="#FF0000" stroke-width="4" stroke-miterlimit="8" fill="none" fill-rule="evenodd" transform="matrix(1 0 0 -1 313 229.353)"/><path d="M0 0 0.000104987 53.8535" stroke="#7030A0" stroke-width="4" stroke-miterlimit="8" fill="none" fill-rule="evenodd" transform="matrix(1 0 0 -1 325 229.854)"/><path d="M0 0 0.000104987 23.7657" stroke="#00B050" stroke-width="4" stroke-miterlimit="8" fill="none" fill-rule="evenodd" transform="matrix(1 0 0 -1 360 230.766)"/><rect x="239" y="169" width="140" height="61" stroke="#000000" stroke-width="4" stroke-miterlimit="8" fill="none"/><path d="M312 245 312 258.443 306 258.443 306 245ZM318 255.443 309 273.443 300 255.443Z" fill="url(#fill5)"/><text font-family="Arial,Arial_MSFontService,sans-serif" font-weight="400" font-size="16" transform="translate(263.483 262)">Q1<tspan font-size="16" x="-19.6028" y="14">isolation</tspan></text><path d="M312 439 312 452.443 306 452.443 306 439ZM318 449.443 309 467.443 300 449.443Z" fill="url(#fill6)"/><text font-family="Arial,Arial_MSFontService,sans-serif" font-style="italic" font-weight="400" font-size="12" transform="translate(354.438 244)">m/z</text><rect x="169" y="498" width="9" height="58" fill="#D9D9D9"/><path d="M169 494 169 556.291" stroke="#BFBFBF" stroke-width="2" stroke-miterlimit="8" stroke-dasharray="8 6" fill="none" fill-rule="evenodd"/><path d="M179 494 179 556.291" stroke="#BFBFBF" stroke-width="2" stroke-miterlimit="8" stroke-dasharray="8 6" fill="none" fill-rule="evenodd"/><rect x="153" y="496" width="8" height="61" fill="#D9D9D9"/><path d="M152 495 152 557.291" stroke="#BFBFBF" stroke-width="2" stroke-miterlimit="8" stroke-dasharray="8 6" fill="none" fill-rule="evenodd"/><path d="M162 495 162 557.291" stroke="#BFBFBF" stroke-width="2" stroke-miterlimit="8" stroke-dasharray="8 6" fill="none" fill-rule="evenodd"/><rect x="136" y="497" width="8" height="59" fill="#D9D9D9"/><path d="M135 494 135 556.291" stroke="#BFBFBF" stroke-width="2" stroke-miterlimit="8" stroke-dasharray="8 6" fill="none" fill-rule="evenodd"/><path d="M145 494 145 556.291" stroke="#BFBFBF" stroke-width="2" stroke-miterlimit="8" stroke-dasharray="8 6" fill="none" fill-rule="evenodd"/><text font-family="Arial,Arial_MSFontService,sans-serif" font-weight="400" font-size="16" transform="matrix(-1.83697e-16 -1 1 -1.83697e-16 37.6458 333)">Q1<tspan font-size="16" x="-203" y="-0.357376">Q3</tspan></text><rect x="112" y="291" width="9" height="58" fill="#D9D9D9"/><text font-family="Arial,Arial_MSFontService,sans-serif" font-weight="400" font-size="24" transform="translate(86.4359 156)">MRM<tspan font-style="italic" font-size="12" x="73.7909" y="210">m/z</tspan></text><path d="M0 0 0.000104987 33.3535" stroke="#FF0000" stroke-width="4" stroke-miterlimit="8" fill="none" fill-rule="evenodd" transform="matrix(1 0 0 -1 117 349.353)"/><path d="M112 287 112 349.291" stroke="#BFBFBF" stroke-width="2" stroke-miterlimit="8" stroke-dasharray="8 6" fill="none" fill-rule="evenodd"/><path d="M122 287 122 349.291" stroke="#BFBFBF" stroke-width="2" stroke-miterlimit="8" stroke-dasharray="8 6" fill="none" fill-rule="evenodd"/><rect x="43" y="289" width="140" height="60" stroke="#000000" stroke-width="4" stroke-miterlimit="8" fill="none"/><text font-family="Arial,Arial_MSFontService,sans-serif" font-style="italic" font-weight="400" font-size="12" transform="translate(160.227 573)">m/z</text><path d="M0 0 0.000104987 33.3535" stroke="#FF0000" stroke-width="4" stroke-miterlimit="8" fill="none" fill-rule="evenodd" transform="matrix(1 0 0 -1 174 557.354)"/><path d="M0 0 0.000104987 53.8535" stroke="#FF0000" stroke-width="4" stroke-miterlimit="8" fill="none" fill-rule="evenodd" transform="matrix(1 0 0 -1 157 556.854)"/><path d="M0 0 0.000104987 23.7657" stroke="#FF0000" stroke-width="4" stroke-miterlimit="8" fill="none" fill-rule="evenodd" transform="matrix(1 0 0 -1 140 558.766)"/><rect x="43" y="496" width="140" height="60" stroke="#000000" stroke-width="4" stroke-miterlimit="8" fill="none"/><path d="M113 408.046 126.613 396.5 125.271 407.101 140.723 405.373 134.586 411.062 150.66 412.699 137.896 417.353 152.5 422.957 135.08 422.264 139.864 432.523 124.777 425.28 121.95 435.791 112.02 426.232 104.533 439.5 101.717 427.609 90.9166 431.571 94.2266 424.245 73.9938 425.539 87.1129 419.941 73.5001 413.65 90.4229 411.664 74.8533 401.069 100.243 409.082 104.047 401.069Z" stroke="#FF0000" stroke-width="1.33333" stroke-miterlimit="8" fill="#FFC000" fill-rule="evenodd"/><text font-family="Arial,Arial_MSFontService,sans-serif" font-weight="400" font-size="16" transform="translate(94.806 423)">HCD<tspan font-size="15" x="-45.5469" y="63">Selected fragments</tspan></text><path d="M116 363 116 376.443 110 376.443 110 363ZM122 373.443 113 391.443 104 373.443Z" fill="url(#fill7)"/><text font-family="Arial,Arial_MSFontService,sans-serif" font-weight="400" font-size="16" transform="matrix(-1.83697e-16 -1 1 -1.83697e-16 36.1723 228)">peptides</text><path d="M0 0 0.000104987 45.0972" stroke="#FFC000" stroke-width="4" stroke-miterlimit="8" fill="none" fill-rule="evenodd" transform="matrix(1 0 0 -1 65 229.097)"/><path d="M0 0 0.000104987 18.674" stroke="#4472C4" stroke-width="4" stroke-miterlimit="8" fill="none" fill-rule="evenodd" transform="matrix(1 0 0 -1 94 228.674)"/><path d="M0 0 0.000104987 33.3535" stroke="#FF0000" stroke-width="4" stroke-miterlimit="8" fill="none" fill-rule="evenodd" transform="matrix(1 0 0 -1 117 228.353)"/><path d="M0 0 0.000104987 53.8535" stroke="#7030A0" stroke-width="4" stroke-miterlimit="8" fill="none" fill-rule="evenodd" transform="matrix(1 0 0 -1 129 228.854)"/><path d="M0 0 0.000104987 23.7657" stroke="#00B050" stroke-width="4" stroke-miterlimit="8" fill="none" fill-rule="evenodd" transform="matrix(1 0 0 -1 164 229.766)"/><rect x="43" y="168" width="140" height="61" stroke="#000000" stroke-width="4" stroke-miterlimit="8" fill="none"/><path d="M116 244 116 257.443 110 257.443 110 244ZM122 254.443 113 272.443 104 254.443Z" fill="url(#fill8)"/><text font-family="Arial,Arial_MSFontService,sans-serif" font-weight="400" font-size="16" transform="translate(67.8187 262)">Q1<tspan font-size="16" x="-19.6028" y="13">isolation</tspan></text><path d="M116 439 116 452.443 110 452.443 110 439ZM122 449.443 113 467.443 104 449.443Z" fill="url(#fill9)"/><text font-family="Arial,Arial_MSFontService,sans-serif" font-style="italic" font-weight="400" font-size="12" transform="translate(160.227 242)">m/z</text></g></svg>