<svg width="2537" height="1558" xmlns="http://www.w3.org/2000/svg" xmlns:xlink="http://www.w3.org/1999/xlink" xml:space="preserve" overflow="hidden"><defs><clipPath id="clip0"><rect x="403" y="425" width="2537" height="1558"/></clipPath></defs><g clip-path="url(#clip0)" transform="translate(-403 -425)"><path d="M2096 1501C2120.62 1020.86 2145.25 540.729 2193.42 505.163 2241.58 469.597 2313.29 878.602 2385 1287.61" stroke="#FFC000" stroke-width="13.75" stroke-miterlimit="8" fill="none" fill-rule="evenodd"/><path d="M1531 1397C1531 1366.62 1555.62 1342 1586 1342L1806 1342C1836.38 1342 1861 1366.62 1861 1397L1861 1617C1861 1647.38 1836.38 1672 1806 1672L1586 1672C1555.62 1672 1531 1647.38 1531 1617Z" fill="#D9D9D9" fill-rule="evenodd"/><rect x="1009" y="1316" width="890" height="382" stroke="#000000" stroke-width="10.3125" stroke-miterlimit="8" fill="none"/><rect x="1899" y="430" width="602" height="1268" stroke="#000000" stroke-width="10.3125" stroke-miterlimit="8" fill="none"/><rect x="1416" y="1193" width="92.0001" height="133" fill="#FFFFFF"/><rect x="1797" y="938" width="114" height="83.9999" fill="#FFFFFF"/><path d="M1113 1399.67C1113 1395.43 1116.43 1392 1120.67 1392L1402.33 1392C1406.57 1392 1410 1395.43 1410 1399.67L1410 1430.33C1410 1434.57 1406.57 1438 1402.33 1438L1120.67 1438C1116.43 1438 1113 1434.57 1113 1430.33Z" fill="#595959" fill-rule="evenodd"/><path d="M1113 1577.67C1113 1573.43 1116.43 1570 1120.67 1570L1402.33 1570C1406.57 1570 1410 1573.43 1410 1577.67L1410 1608.33C1410 1612.57 1406.57 1616 1402.33 1616L1120.67 1616C1116.43 1616 1113 1612.57 1113 1608.33Z" fill="#595959" fill-rule="evenodd"/><path d="M1565 1399.67C1565 1395.43 1568.43 1392 1572.67 1392L1821.33 1392C1825.57 1392 1829 1395.43 1829 1399.67L1829 1430.33C1829 1434.57 1825.57 1438 1821.33 1438L1572.67 1438C1568.43 1438 1565 1434.57 1565 1430.33Z" fill="#595959" fill-rule="evenodd"/><path d="M1565 1577.67C1565 1573.43 1568.43 1570 1572.67 1570L1821.33 1570C1825.57 1570 1829 1573.43 1829 1577.67L1829 1608.33C1829 1612.57 1825.57 1616 1821.33 1616L1572.67 1616C1568.43 1616 1565 1612.57 1565 1608.33Z" fill="#595959" fill-rule="evenodd"/><path d="M768.5 1466 934.5 1466 934.5 1435.5 995.5 1496.5 934.5 1557.5 934.5 1527 768.5 1527Z" stroke="#2F528F" stroke-width="4.58333" stroke-miterlimit="8" fill="#4472C4" fill-rule="evenodd"/><text fill="#FFFFFF" font-family="Calibri,Calibri_MSFontService,sans-serif" font-weight="400" font-size="64" transform="matrix(1 0 0 1 811.741 1518)">I</text><text fill="#FFFFFF" font-family="Calibri,Calibri_MSFontService,sans-serif" font-weight="400" font-size="64" transform="matrix(1 0 0 1 827.783 1518)">ons</text><rect x="1684" y="1624" width="37.0001" height="191" fill="#D9D9D9"/><text font-family="Arial,Arial_MSFontService,sans-serif" font-weight="400" font-size="64" transform="matrix(1 0 0 1 1668.55 1929)">Collision gas inlet</text><path d="M1769 932 1901.65 932" stroke="#000000" stroke-width="10.3125" stroke-miterlimit="8" fill="none" fill-rule="evenodd"/><path d="M1771 1016 1903.65 1016" stroke="#000000" stroke-width="10.3125" stroke-miterlimit="8" fill="none" fill-rule="evenodd"/><path d="M1512 1183 1512 1315" stroke="#000000" stroke-width="10.3125" stroke-miterlimit="8" fill="none" fill-rule="evenodd"/><path d="M1410 1182 1410 1314" stroke="#000000" stroke-width="10.3125" stroke-miterlimit="8" fill="none" fill-rule="evenodd"/><text font-family="Arial,Arial_MSFontService,sans-serif" font-weight="400" font-size="64" transform="matrix(1 0 0 1 1393.07 959)">Vacuum </text><text font-family="Arial,Arial_MSFontService,sans-serif" font-weight="400" font-size="64" transform="matrix(1 0 0 1 1412.16 1036)">pumps</text><path d="M4.41408-2.66511 68.7356 103.867 59.9075 109.198-4.41408 2.66511ZM74.8987 94.1231 77.6471 128.603 48.4142 110.114Z" fill="#A6A6A6" transform="matrix(1 0 0 -1 1154 1770.6)"/><path d="M4.3819-2.71769 68.8466 101.223 60.0828 106.658-4.3819 2.71769ZM74.8927 91.4055 78.0531 125.85 48.6012 107.712Z" fill="#A6A6A6" transform="matrix(1 0 0 -1 1544 1770.85)"/><text font-family="Arial,Arial_MSFontService,sans-serif" font-weight="400" font-size="64" transform="matrix(1 0 0 1 1263.7 1864)">Collision cell</text><text font-family="Arial,Arial_MSFontService,sans-serif" font-weight="400" font-size="64" transform="matrix(1 0 0 1 853.199 1855)">Quadrupole</text><path d="M1983 478 2049 478.001" stroke="#7F7F7F" stroke-width="10.3125" stroke-miterlimit="8" fill="none" fill-rule="evenodd"/><path d="M1983 515 2049 515" stroke="#7F7F7F" stroke-width="10.3125" stroke-miterlimit="8" fill="none" fill-rule="evenodd"/><path d="M1983 552 2049 552" stroke="#7F7F7F" stroke-width="10.3125" stroke-miterlimit="8" fill="none" fill-rule="evenodd"/><path d="M1983 588 2049 588.001" stroke="#7F7F7F" stroke-width="10.3125" stroke-miterlimit="8" fill="none" fill-rule="evenodd"/><path d="M1983 625 2049 625" stroke="#7F7F7F" stroke-width="10.3125" stroke-miterlimit="8" fill="none" fill-rule="evenodd"/><path d="M1983 662 2049 662" stroke="#7F7F7F" stroke-width="10.3125" stroke-miterlimit="8" fill="none" fill-rule="evenodd"/><path d="M1983 698 2049 698.001" stroke="#7F7F7F" stroke-width="10.3125" stroke-miterlimit="8" fill="none" fill-rule="evenodd"/><path d="M1983 735 2049 735" stroke="#7F7F7F" stroke-width="10.3125" stroke-miterlimit="8" fill="none" fill-rule="evenodd"/><path d="M1983 772 2049 772" stroke="#7F7F7F" stroke-width="10.3125" stroke-miterlimit="8" fill="none" fill-rule="evenodd"/><path d="M2365 478 2431 478.001" stroke="#7F7F7F" stroke-width="10.3125" stroke-miterlimit="8" fill="none" fill-rule="evenodd"/><path d="M2365 515 2431 515" stroke="#7F7F7F" stroke-width="10.3125" stroke-miterlimit="8" fill="none" fill-rule="evenodd"/><path d="M2365 552 2431 552" stroke="#7F7F7F" stroke-width="10.3125" stroke-miterlimit="8" fill="none" fill-rule="evenodd"/><path d="M2365 588 2431 588.001" stroke="#7F7F7F" stroke-width="10.3125" stroke-miterlimit="8" fill="none" fill-rule="evenodd"/><path d="M2365 625 2431 625" stroke="#7F7F7F" stroke-width="10.3125" stroke-miterlimit="8" fill="none" fill-rule="evenodd"/><path d="M2365 662 2431 662" stroke="#7F7F7F" stroke-width="10.3125" stroke-miterlimit="8" fill="none" fill-rule="evenodd"/><path d="M2365 698 2431 698.001" stroke="#7F7F7F" stroke-width="10.3125" stroke-miterlimit="8" fill="none" fill-rule="evenodd"/><path d="M2365 735 2431 735" stroke="#7F7F7F" stroke-width="10.3125" stroke-miterlimit="8" fill="none" fill-rule="evenodd"/><path d="M2365 772 2431 772" stroke="#7F7F7F" stroke-width="10.3125" stroke-miterlimit="8" fill="none" fill-rule="evenodd"/><path d="M1993 478 2416.82 478.001" stroke="#A6A6A6" stroke-width="10.3125" stroke-miterlimit="8" fill="none" fill-rule="evenodd"/><path d="M1993 772 2416.82 772" stroke="#BFBFBF" stroke-width="10.3125" stroke-miterlimit="8" stroke-dasharray="10.3125 10.3125" fill="none" fill-rule="evenodd"/><path d="M2277.5 1332.5C2277.5 1326.42 2282.42 1321.5 2288.5 1321.5L2461.5 1321.5C2467.58 1321.5 2472.5 1326.42 2472.5 1332.5L2472.5 1376.5C2472.5 1382.57 2467.58 1387.5 2461.5 1387.5L2288.5 1387.5C2282.42 1387.5 2277.5 1382.57 2277.5 1376.5Z" stroke="#A6A6A6" stroke-width="4.58333" stroke-miterlimit="8" fill="#7F7F7F" fill-rule="evenodd"/><path d="M2292 1305.5C2292 1275.95 2328.94 1252 2374.5 1252 2420.06 1252 2457 1275.95 2457 1305.5 2457 1335.05 2420.06 1359 2374.5 1359 2328.94 1359 2292 1335.05 2292 1305.5Z" fill="#FFFFFF" fill-rule="evenodd"/><path d="M1977 1325 2043 1325" stroke="#7F7F7F" stroke-width="10.3125" stroke-miterlimit="8" fill="none" fill-rule="evenodd"/><path d="M1977 1362 2043 1362" stroke="#7F7F7F" stroke-width="10.3125" stroke-miterlimit="8" fill="none" fill-rule="evenodd"/><path d="M1977 1399 2043 1399" stroke="#7F7F7F" stroke-width="10.3125" stroke-miterlimit="8" fill="none" fill-rule="evenodd"/><path d="M1977 1435 2043 1435" stroke="#7F7F7F" stroke-width="10.3125" stroke-miterlimit="8" fill="none" fill-rule="evenodd"/><path d="M1977 1472 2043 1472" stroke="#7F7F7F" stroke-width="10.3125" stroke-miterlimit="8" fill="none" fill-rule="evenodd"/><path d="M2155 1325 2221 1325" stroke="#7F7F7F" stroke-width="10.3125" stroke-miterlimit="8" fill="none" fill-rule="evenodd"/><path d="M2155 1362 2221 1362" stroke="#7F7F7F" stroke-width="10.3125" stroke-miterlimit="8" fill="none" fill-rule="evenodd"/><path d="M2155 1399 2221 1399" stroke="#7F7F7F" stroke-width="10.3125" stroke-miterlimit="8" fill="none" fill-rule="evenodd"/><path d="M2155 1435 2221 1435" stroke="#7F7F7F" stroke-width="10.3125" stroke-miterlimit="8" fill="none" fill-rule="evenodd"/><path d="M2155 1472 2221 1472" stroke="#7F7F7F" stroke-width="10.3125" stroke-miterlimit="8" fill="none" fill-rule="evenodd"/><path d="M1980 1541 2220.9 1541" stroke="#000000" stroke-width="10.3125" stroke-miterlimit="8" fill="none" fill-rule="evenodd"/><path d="M1983 1472 2214 1472" stroke="#000000" stroke-width="10.3125" stroke-miterlimit="8" fill="none" fill-rule="evenodd"/><path d="M1124.06 1499.13 2120.74 1507.08 2120.63 1520.83 1123.95 1512.87ZM2113.97 1493.28 2155.06 1514.23 2113.64 1534.53Z" fill="#4472C4"/><path d="M2090 1509C2113.18 1074.09 2136.35 639.175 2181.69 606.959 2227.02 574.744 2294.51 945.224 2362 1315.71" stroke="#4472C4" stroke-width="13.75" stroke-miterlimit="8" fill="none" fill-rule="evenodd"/><path d="M1980 1570 2220.9 1570" stroke="#000000" stroke-width="10.3125" stroke-miterlimit="8" stroke-dasharray="41.25 30.9375" fill="none" fill-rule="evenodd"/><path d="M2364.71 1295.51 2367.39 1307.52 2353.96 1310.51 2351.29 1298.49ZM2379.31 1297.82 2368.15 1342.57 2339.05 1306.79Z" fill="#4472C4"/><path d="M2563.83 1481.38 2464.15 1426.89 2469.09 1417.84 2568.77 1472.34ZM2463.73 1438.41 2444 1410 2478.57 1411.27Z" fill="#A6A6A6"/><text font-family="Arial,Arial_MSFontService,sans-serif" font-weight="400" font-size="64" transform="matrix(1 0 0 1 2586.94 1524)">D</text><text font-family="Arial,Arial_MSFontService,sans-serif" font-weight="400" font-size="64" transform="matrix(1 0 0 1 2633.35 1524)">etector</text><text font-family="Arial,Arial_MSFontService,sans-serif" font-weight="400" font-size="64" transform="matrix(1 0 0 1 2609.51 661)">Reflectron</text><path d="M1.3793e-05-5.15625 109.131-5.15596 109.131 5.15654-1.3793e-05 5.15625ZM103.975-15.4685 134.912 0.000360892 103.975 15.469Z" fill="#A6A6A6" transform="matrix(-1 0 0 1 2584.91 637)"/><text font-family="Calibri,Calibri_MSFontService,sans-serif" font-weight="400" font-size="83" transform="matrix(1 0 0 1 2168.07 1200)">TOF</text><text font-family="Arial,Arial_MSFontService,sans-serif" font-weight="400" font-size="64" transform="matrix(1 0 0 1 2092.82 1832)">Ion modulator</text><path d="M2200.57 1762.36 2114.38 1625.56 2123.11 1620.06 2209.3 1756.86ZM2108.41 1635.42 2105 1601 2134.58 1618.93Z" fill="#A6A6A6"/><text font-family="Arial,Arial_MSFontService,sans-serif" font-weight="400" font-size="64" transform="matrix(1 0 0 1 441.808 1514)">Ion source</text><path d="M1137 1480.5C1137 1471.39 1144.39 1464 1153.5 1464 1162.61 1464 1170 1471.39 1170 1480.5 1170 1489.61 1162.61 1497 1153.5 1497 1144.39 1497 1137 1489.61 1137 1480.5Z" fill="#FFC000" fill-rule="evenodd"/><path d="M1195 1522.5C1195 1513.39 1202.39 1506 1211.5 1506 1220.61 1506 1228 1513.39 1228 1522.5 1228 1531.61 1220.61 1539 1211.5 1539 1202.39 1539 1195 1531.61 1195 1522.5Z" fill="#FFC000" fill-rule="evenodd"/><path d="M1222 1478.5C1222 1469.39 1229.39 1462 1238.5 1462 1247.61 1462 1255 1469.39 1255 1478.5 1255 1487.61 1247.61 1495 1238.5 1495 1229.39 1495 1222 1487.61 1222 1478.5Z" fill="#FFC000" fill-rule="evenodd"/><path d="M1097 1530.5C1097 1521.39 1104.39 1514 1113.5 1514 1122.61 1514 1130 1521.39 1130 1530.5 1130 1539.61 1122.61 1547 1113.5 1547 1104.39 1547 1097 1539.61 1097 1530.5Z" fill="#7030A0" fill-rule="evenodd"/><path d="M1261 1522.5C1261 1513.39 1268.39 1506 1277.5 1506 1286.61 1506 1294 1513.39 1294 1522.5 1294 1531.61 1286.61 1539 1277.5 1539 1268.39 1539 1261 1531.61 1261 1522.5Z" fill="#FFC000" fill-rule="evenodd"/><path d="M1273 1459.5C1273 1450.39 1280.39 1443 1289.5 1443 1298.61 1443 1306 1450.39 1306 1459.5 1306 1468.61 1298.61 1476 1289.5 1476 1280.39 1476 1273 1468.61 1273 1459.5Z" fill="#00B050" fill-rule="evenodd"/><path d="M1313 1553.5C1313 1544.39 1320.39 1537 1329.5 1537 1338.61 1537 1346 1544.39 1346 1553.5 1346 1562.61 1338.61 1570 1329.5 1570 1320.39 1570 1313 1562.61 1313 1553.5Z" fill="#7030A0" fill-rule="evenodd"/><path d="M2382.77 1238.82 2394.13 1303.95 2380.59 1306.32 2369.23 1241.18ZM2406.5 1294.82 2393.26 1339 2365.86 1301.91Z" fill="#FFC000"/><path d="M1.3793e-05-5.15625 109.131-5.15596 109.131 5.15654-1.3793e-05 5.15625ZM103.975-15.4685 134.912 0.000360892 103.975 15.469Z" fill="#A6A6A6" transform="matrix(-1 0 0 1 2574.91 1106)"/><text font-family="Arial,Arial_MSFontService,sans-serif" font-weight="400" font-size="64" transform="matrix(1 0 0 1 2612.65 1094)">Field free </text><text font-family="Arial,Arial_MSFontService,sans-serif" font-weight="400" font-size="64" transform="matrix(1 0 0 1 2630.41 1171)">drift tube</text></g></svg>